<svg xmlns="http://www.w3.org/2000/svg" width="27.802" height="27.796" viewBox="1503 7998.595 27.802 27.796"><path d="M1516.904 8005.366a7.115 7.115 0 0 0-7.126 7.126 7.115 7.115 0 0 0 7.126 7.127 7.115 7.115 0 0 0 7.126-7.127 7.115 7.115 0 0 0-7.126-7.126Zm0 11.76a4.642 4.642 0 0 1-4.633-4.634 4.638 4.638 0 0 1 4.633-4.633 4.638 4.638 0 0 1 4.633 4.633 4.642 4.642 0 0 1-4.633 4.633Zm9.08-12.052c0 .925-.744 1.663-1.662 1.663a1.662 1.662 0 1 1 1.662-1.662Zm4.72 1.687c-.105-2.226-.614-4.198-2.245-5.823-1.625-1.625-3.597-2.134-5.824-2.246-2.295-.13-9.173-.13-11.468 0-2.22.106-4.193.614-5.824 2.24-1.631 1.624-2.134 3.597-2.245 5.823-.13 2.295-.13 9.173 0 11.468.105 2.227.614 4.2 2.245 5.824 1.631 1.625 3.597 2.134 5.824 2.245 2.295.13 9.173.13 11.468 0 2.227-.105 4.199-.614 5.824-2.245 1.625-1.625 2.133-3.597 2.245-5.824.13-2.295.13-9.167 0-11.462Zm-2.965 13.925a4.69 4.69 0 0 1-2.642 2.642c-1.83.725-6.171.558-8.193.558-2.022 0-6.37.161-8.193-.558a4.69 4.69 0 0 1-2.642-2.642c-.726-1.83-.559-6.172-.559-8.194 0-2.022-.16-6.37.559-8.193a4.69 4.69 0 0 1 2.642-2.642c1.83-.726 6.171-.558 8.193-.558 2.022 0 6.37-.161 8.193.558a4.69 4.69 0 0 1 2.642 2.642c.726 1.83.559 6.171.559 8.193 0 2.022.167 6.37-.559 8.194Z" fill="#f7f5ed" fill-rule="evenodd" data-name="Icon awesome-instagram"/></svg>