<svg xmlns="http://www.w3.org/2000/svg" width="38.576" height="38.571"><g data-name="Group 1" clip-path="url(&quot;#a&quot;)"><path d="M30.393 14.083c-.81 0-1.483-.673-1.483-1.483a9.632 9.632 0 0 0-9.633-9.633A9.632 9.632 0 0 0 9.645 12.6c0 .81-.673 1.483-1.484 1.483-.81 0-1.483-.673-1.483-1.483 0-6.943 5.657-12.6 12.6-12.6 6.942 0 12.599 5.657 12.599 12.6 0 .81-.673 1.483-1.484 1.483" fill="#568199" fill-rule="evenodd" data-name="Path 6"/><path d="M27.447 38.57H11.109c-3.64 0-6.864-2.472-7.814-6.012L.29 21.442a8.126 8.126 0 0 1 1.404-7.121c1.543-2.018 3.877-3.185 6.41-3.185h22.37a7.964 7.964 0 0 1 6.41 3.185 8.138 8.138 0 0 1 1.404 7.12L35.28 32.559c-.95 3.54-4.173 6.013-7.813 6.013h-.02ZM8.102 14.104a5.04 5.04 0 0 0-4.055 2.018 5.21 5.21 0 0 0-.89 4.55l3.006 11.116c.614 2.255 2.65 3.817 4.945 3.817h16.358c2.314 0 4.332-1.562 4.945-3.817l3.006-11.116a5.21 5.21 0 0 0-.89-4.55c-.99-1.286-2.453-2.018-4.055-2.018H8.102Z" fill="#568199" fill-rule="evenodd" data-name="Path 7"/></g><defs><clipPath id="a"><path d="M0 0h38.576v38.57H0V0z" data-name="Rectangle 11"/></clipPath></defs></svg>