<svg xmlns="http://www.w3.org/2000/svg" width="38.359" height="38.359" viewBox="1706.495 114 38.359 38.359"><g data-name="Icon feather-search"><path d="M1723.722 114c4.601 0 8.927 1.792 12.181 5.046a17.114 17.114 0 0 1 5.046 12.18c0 4.602-1.792 8.928-5.046 12.182a17.114 17.114 0 0 1-12.18 5.045 17.114 17.114 0 0 1-12.182-5.045 17.114 17.114 0 0 1-5.046-12.181c0-4.602 1.792-8.928 5.046-12.181a17.114 17.114 0 0 1 12.181-5.046Zm0 31.248a13.93 13.93 0 0 0 9.915-4.107 13.93 13.93 0 0 0 4.107-9.914 13.93 13.93 0 0 0-4.107-9.915 13.93 13.93 0 0 0-9.915-4.107 13.93 13.93 0 0 0-9.915 4.107 13.93 13.93 0 0 0-4.107 9.915 13.93 13.93 0 0 0 4.107 9.914 13.93 13.93 0 0 0 9.915 4.107Z" fill="#568199" fill-rule="evenodd" data-name="Path 4"/><path d="M1743.252 152.36c-.41 0-.82-.157-1.133-.47l-8.496-8.496a1.602 1.602 0 1 1 2.267-2.266l8.495 8.496a1.602 1.602 0 0 1-1.133 2.735Z" fill="#568199" fill-rule="evenodd" data-name="Path 5"/></g></svg>